<svg width="29" height="29" viewBox="0 0 29 29" fill="none" xmlns="http://www.w3.org/2000/svg">
<path id="Arrow 1" d="M0.93934 25.9393C0.353553 26.5251 0.353553 27.4749 0.93934 28.0607C1.52513 28.6464 2.47487 28.6464 3.06066 28.0607L0.93934 25.9393ZM28.5 2C28.5 1.17157 27.8284 0.500001 27 0.5L13.5 0.5C12.6716 0.5 12 1.17157 12 2C12 2.82843 12.6716 3.5 13.5 3.5L25.5 3.5L25.5 15.5C25.5 16.3284 26.1716 17 27 17C27.8284 17 28.5 16.3284 28.5 15.5L28.5 2ZM3.06066 28.0607L28.0607 3.06066L25.9393 0.93934L0.93934 25.9393L3.06066 28.0607Z" fill="black"/>
</svg>
