<svg width="33" height="37" viewBox="0 0 33 37" fill="none" xmlns="http://www.w3.org/2000/svg">
<path id="Exclude" fill-rule="evenodd" clip-rule="evenodd" d="M27.1175 2.66127C27.0585 1.19342 25.4901 0.287882 24.1894 0.970751L21.3026 2.48635C20.6259 2.84162 19.8059 2.78017 19.1897 2.32801L16.561 0.399082C15.3766 -0.470016 13.6908 0.191641 13.4137 1.63432L12.7987 4.83628C12.6546 5.58685 12.0953 6.18964 11.3576 6.38948L8.21052 7.242C6.79259 7.62611 6.25877 9.35672 7.21394 10.4728L9.33392 12.95C9.60568 13.2676 9.76548 13.6546 9.80483 14.0549L9.56736 14.4305C9.15896 15.0766 8.41808 15.4333 7.65836 15.3499L4.4174 14.9937C2.95715 14.8332 1.82797 16.2492 2.30935 17.6371L3.37777 20.7176C3.62822 21.4396 3.44523 22.2413 2.90628 22.7833L0.607115 25.0951C-0.428798 26.1367 -0.0257971 27.9024 1.35947 28.3914L4.43401 29.4767C5.15472 29.7311 5.66742 30.374 5.75508 31.1332L6.12903 34.3722C6.29751 35.8315 7.92923 36.6173 9.17524 35.8392L11.9407 34.1121C12.589 33.7072 13.4113 33.7072 14.0595 34.1121L16.825 35.8392C18.071 36.6173 19.7027 35.8315 19.8712 34.3722L20.2452 31.1332C20.3328 30.374 20.8455 29.7311 21.5662 29.4767L24.6408 28.3914C26.0261 27.9024 26.4291 26.1367 25.3931 25.0951L23.094 22.7833C22.8449 22.5328 22.6718 22.2268 22.5825 21.8989C23.0266 21.5562 23.6028 21.4103 24.1709 21.5161L27.3762 22.1135C28.8203 22.3826 30.0522 21.055 29.6759 19.635L28.8406 16.4833C28.6448 15.7445 28.8872 14.9588 29.4652 14.4586L31.9307 12.3251C33.0415 11.3638 32.7716 9.57297 31.4267 8.98181L28.4419 7.66978C27.7422 7.36222 27.279 6.6828 27.2483 5.91912L27.1175 2.66127ZM22.5825 21.8989C22.4785 21.5173 22.4878 21.1059 22.6225 20.7176L23.6909 17.6371C24.1723 16.2492 23.0431 14.8332 21.5829 14.9937L18.3419 15.3499C17.5822 15.4333 16.8413 15.0766 16.4329 14.4305L14.6907 11.6746C13.9057 10.4329 12.0946 10.4329 11.3096 11.6746L9.80483 14.0549C9.83743 14.3866 9.78734 14.7274 9.64972 15.0452L8.35408 18.0372C7.77032 19.3852 8.79053 20.8816 10.2587 20.8307L13.5172 20.7177C14.281 20.6913 14.9932 21.1024 15.3522 21.7772L16.8836 24.6556C17.5736 25.9525 19.3796 26.0879 20.2552 24.9083L22.1985 22.2902C22.3096 22.1405 22.4392 22.0095 22.5825 21.8989Z" fill="black"/>
</svg>
