<svg width="54" height="54" viewBox="0 0 54 54" fill="none" xmlns="http://www.w3.org/2000/svg">
<path id="Star 1" d="M27 0L28.2911 20.9257L37.9819 2.33427L30.6501 21.976L47.0649 8.93347L32.378 23.895L52.6785 18.6565L33.176 26.3509L53.8521 29.8223L32.9061 28.919L50.3827 40.5L31.6149 31.1553L42.8702 48.8435L29.5258 32.6731L32.6136 53.41L27 33.21L21.3864 53.41L24.4742 32.6731L11.1298 48.8435L22.3851 31.1553L3.61731 40.5L21.0939 28.919L0.147909 29.8223L20.824 26.3509L1.32147 18.6565L21.622 23.895L6.93509 8.93347L23.3499 21.976L16.0181 2.33427L25.7089 20.9257L27 0Z" fill="black"/>
</svg>
